<!DOCTYPE svg PUBLIC "-//W3C//DTD SVG 20010904//EN" "http://www.w3.org/TR/2001/REC-SVG-20010904/DTD/svg10.dtd">
<svg version="1.0" xmlns="http://www.w3.org/2000/svg" width="1600px" height="1141px" viewBox="0 0 16000 11410" preserveAspectRatio="xMidYMid meet">
<g id="layer101" fill="#2e9edf" stroke="none">
 <path d="M3980 7146 l0 -806 357 0 c370 0 448 6 543 42 103 40 165 97 217 200 24 48 27 64 27 163 1 102 -1 114 -28 165 -15 30 -40 67 -55 82 -37 39 -110 85 -149 93 -32 7 -35 25 -4 25 41 0 141 62 195 119 62 67 91 132 101 226 9 71 -12 184 -46 252 -27 55 -122 145 -188 178 -105 53 -144 57 -572 62 l-398 4 0 -805z m710 703 c190 -18 301 -80 354 -199 24 -53 28 -75 28 -155 0 -84 -3 -99 -29 -147 -37 -68 -111 -127 -198 -158 -68 -24 -79 -25 -417 -28 l-348 -3 0 350 0 351 248 0 c136 0 299 -5 362 -11z m88 -802 c156 -45 245 -158 244 -312 -1 -173 -121 -278 -337 -296 -55 -4 -214 -8 -352 -9 l-253 0 0 321 0 322 323 -6 c244 -4 335 -9 375 -20z"/>
 <path d="M5780 7145 l0 -805 373 0 c417 0 498 8 604 60 89 44 157 122 184 211 28 92 23 235 -10 321 -41 105 -184 226 -271 229 -18 0 -12 5 25 18 85 31 99 38 141 78 82 76 102 146 110 393 5 142 11 198 25 240 11 30 19 56 19 57 0 2 -26 3 -58 3 -54 0 -60 -2 -72 -27 -8 -18 -15 -103 -20 -234 -10 -259 -21 -302 -95 -375 -85 -85 -98 -87 -507 -92 l-348 -3 0 365 0 366 -50 0 -50 0 0 -805z m845 -45 c101 -39 143 -75 195 -170 22 -40 25 -57 25 -160 0 -108 -2 -118 -28 -162 -62 -103 -157 -155 -307 -169 -52 -4 -215 -8 -362 -9 l-268 0 0 351 0 352 343 -5 c326 -5 345 -6 402 -28z"/>
 <path d="M7435 7913 c19 -52 59 -157 84 -220 36 -91 57 -144 101 -258 23 -60 51 -130 60 -155 28 -71 127 -325 171 -440 22 -58 49 -125 59 -150 11 -25 31 -76 45 -115 25 -66 49 -126 81 -202 l14 -33 120 0 121 0 13 33 c7 17 32 82 55 142 23 61 51 130 61 155 10 25 31 77 45 115 14 39 34 90 45 115 10 25 30 74 44 110 68 180 99 259 116 300 10 25 40 99 65 165 26 66 55 140 65 165 10 25 30 77 45 115 14 39 33 86 42 105 8 19 19 47 24 63 l8 27 -123 0 -124 0 -12 -32 c-36 -101 -53 -148 -106 -295 l-58 -163 -332 0 -332 0 -10 28 c-5 15 -28 74 -50 132 -22 58 -43 114 -46 125 -4 11 -23 62 -42 113 l-36 92 -114 0 -113 0 14 -37z m963 -715 c-16 -46 -44 -126 -63 -178 -18 -52 -47 -133 -65 -180 -17 -47 -47 -130 -66 -184 -19 -55 -36 -101 -38 -104 -3 -2 -9 11 -14 30 -6 18 -25 71 -42 118 -18 47 -38 103 -45 125 -12 35 -25 72 -91 250 -8 22 -25 69 -38 105 -13 36 -27 73 -31 83 -7 16 9 17 258 17 l264 0 -29 -82z"/>
 <path d="M9460 7145 l0 -805 110 0 110 0 0 805 0 805 -110 0 -110 0 0 -805z"/>
 <path d="M10390 7145 l0 -805 63 0 c75 0 62 -12 182 165 88 129 120 176 228 330 31 44 90 130 131 190 80 117 95 140 252 365 98 142 215 311 261 379 l23 34 0 -732 0 -731 55 0 55 0 0 805 0 805 -64 0 -63 0 -44 -62 c-24 -35 -57 -83 -74 -108 -17 -25 -56 -81 -87 -125 -124 -179 -344 -499 -378 -549 -8 -13 -28 -42 -45 -66 -16 -24 -37 -53 -45 -66 -8 -12 -42 -62 -76 -111 -33 -48 -96 -140 -140 -203 -43 -64 -89 -129 -101 -145 l-22 -30 -1 733 0 732 -55 0 -55 0 0 -805z"/>
 <path d="M7794 5748 c-40 -31 -53 -49 -60 -79 -5 -21 -26 -37 -102 -77 -54 -28 -121 -64 -151 -80 l-54 -30 -37 24 c-73 49 -156 40 -217 -22 -23 -24 -34 -46 -39 -81 -5 -37 -14 -55 -43 -82 -20 -18 -61 -58 -92 -87 -55 -52 -58 -54 -114 -54 -53 0 -60 -3 -95 -38 -50 -50 -65 -103 -46 -166 16 -53 40 -84 74 -97 28 -11 29 -42 2 -204 -11 -66 -20 -137 -20 -158 0 -32 -4 -39 -27 -48 -61 -23 -103 -83 -103 -149 0 -47 31 -114 59 -130 19 -9 19 -12 5 -48 -8 -20 -23 -55 -34 -77 -10 -22 -30 -67 -45 -100 -21 -49 -33 -63 -65 -78 -62 -29 -85 -69 -85 -147 0 -55 4 -71 25 -97 14 -17 41 -39 61 -48 35 -16 37 -20 102 -218 88 -269 83 -245 54 -258 -13 -6 -36 -29 -51 -52 -24 -36 -27 -50 -24 -98 5 -64 32 -107 86 -133 45 -22 120 -20 159 4 26 15 35 17 45 7 7 -7 45 -39 83 -72 39 -33 90 -78 115 -100 70 -62 181 -158 195 -170 7 -5 18 -26 24 -46 20 -63 76 -101 152 -102 59 -1 118 35 143 87 18 38 25 41 161 70 39 9 95 22 125 31 30 8 62 15 70 15 9 0 48 -31 87 -69 49 -48 95 -81 146 -105 69 -33 81 -36 168 -36 83 0 101 3 157 30 40 19 88 54 134 99 65 63 73 69 104 64 49 -8 192 16 239 39 141 72 203 199 192 395 l-5 92 47 30 c69 42 116 95 153 170 31 63 32 73 36 202 3 115 1 148 -17 212 l-21 76 22 48 c17 38 21 69 22 153 1 99 -1 109 -32 173 -21 46 -52 88 -91 127 -60 58 -60 58 -49 97 5 20 8 76 6 123 -5 92 -29 157 -86 235 -28 39 -29 46 -34 180 -5 118 -10 151 -31 208 -59 152 -161 249 -317 297 -50 16 -55 21 -69 61 -31 95 -148 226 -246 274 -142 70 -321 31 -462 -102 l-31 -29 -6 30 c-9 48 -36 90 -70 114 -46 31 -142 31 -182 0z m146 -98 c19 -27 21 -35 10 -61 -23 -54 -75 -65 -115 -24 -31 30 -32 62 -3 92 32 35 81 31 108 -7z m555 6 c76 -35 187 -154 209 -221 5 -19 0 -22 -56 -34 -183 -38 -324 -160 -380 -329 -31 -95 -21 -142 29 -142 25 0 33 14 54 95 18 70 52 126 110 180 57 54 124 86 227 111 69 16 76 16 137 -1 118 -32 212 -118 264 -242 19 -46 25 -81 29 -167 4 -103 3 -109 -14 -102 -62 25 -187 14 -257 -21 -47 -24 -120 -105 -149 -165 -16 -31 -28 -61 -28 -66 0 -5 -20 -17 -44 -26 -90 -35 -174 -123 -240 -253 -27 -54 -26 -77 4 -93 29 -16 48 -2 81 60 39 74 121 165 170 190 104 54 224 -15 337 -192 42 -65 64 -78 93 -52 31 28 25 46 -52 154 -61 86 -128 146 -195 177 -30 13 -54 30 -54 37 0 24 60 103 98 129 60 42 118 53 193 37 52 -11 70 -20 99 -51 73 -78 102 -235 60 -328 -27 -58 -25 -68 12 -87 93 -48 178 -185 178 -286 0 -158 -93 -261 -272 -302 -57 -13 -43 -86 16 -86 41 0 137 35 185 66 19 13 38 21 41 19 14 -9 33 -167 27 -225 -19 -181 -125 -284 -345 -335 -166 -39 -305 -3 -409 105 -49 51 -117 178 -133 250 -18 80 -54 112 -88 78 -33 -33 14 -189 94 -314 120 -187 313 -260 555 -209 58 12 74 13 81 3 5 -7 7 -55 4 -106 -8 -133 -50 -203 -153 -252 -42 -20 -63 -23 -164 -23 l-115 0 -24 -34 c-33 -48 -106 -110 -165 -141 -37 -19 -66 -26 -110 -26 -94 -1 -171 39 -271 140 l-52 52 -4 1448 -5 1449 46 42 c25 24 77 59 115 78 86 44 155 47 231 11z m-731 -153 l33 -37 -43 -125 c-77 -223 -96 -276 -103 -284 -4 -4 -34 30 -67 74 -32 45 -71 96 -86 114 -16 18 -28 37 -28 43 0 6 -5 12 -11 14 -7 2 -8 20 -4 51 7 47 8 47 84 86 42 22 101 53 131 70 30 17 56 31 57 31 2 0 18 -17 37 -37z m250 -310 l7 -303 -105 0 c-99 0 -106 1 -117 23 -6 12 -24 36 -40 52 l-29 31 36 99 c19 55 52 150 74 210 21 61 41 117 45 127 3 9 22 19 40 22 18 4 44 15 57 25 13 11 24 19 24 18 1 -1 4 -138 8 -304z m-690 246 c13 -7 30 -24 36 -39 22 -54 -32 -114 -87 -94 -59 21 -69 99 -15 128 33 19 35 19 66 5z m-122 -201 c35 -24 127 -30 165 -10 20 11 28 4 111 -111 l90 -122 -34 -33 c-19 -18 -34 -37 -34 -42 0 -17 -31 -12 -236 40 -109 27 -200 50 -200 50 -1 0 -4 18 -8 40 -3 23 -12 50 -19 61 -11 18 -5 27 56 85 38 35 71 64 74 64 3 0 19 -10 35 -22z m-252 -168 c29 -29 26 -74 -6 -99 -31 -24 -43 -26 -78 -10 -64 29 -41 129 29 129 22 0 43 -8 55 -20z m264 -191 c284 -69 271 -64 291 -109 l17 -39 -67 -64 c-59 -56 -74 -66 -116 -71 -57 -8 -101 -41 -130 -97 -11 -22 -26 -39 -33 -39 -8 0 -55 -13 -106 -30 l-91 -30 -25 29 c-13 16 -36 32 -50 35 -21 6 -25 11 -21 29 3 12 15 92 27 177 28 201 28 200 45 200 7 0 27 11 42 25 15 13 32 25 37 25 5 0 86 -19 180 -41z m483 19 c57 -53 -9 -149 -78 -114 -28 14 -48 51 -42 76 15 57 79 77 120 38z m323 -433 l0 -335 -26 10 c-14 6 -35 10 -48 10 -13 0 -58 29 -107 68 -46 37 -100 79 -119 92 -89 61 -196 155 -202 178 -4 13 -15 33 -24 43 -17 19 -15 22 51 89 49 49 75 68 87 64 33 -10 101 17 135 54 18 20 33 42 33 49 0 10 26 13 110 13 l110 0 0 -335z m-616 24 c53 -42 23 -122 -46 -122 -73 0 -93 105 -25 133 33 13 42 12 71 -11z m-533 -112 c9 -7 21 -22 28 -35 19 -35 -14 -86 -58 -90 -40 -4 -81 29 -81 65 0 52 72 90 111 60z m366 -47 c19 -22 41 -40 48 -40 8 0 17 -5 21 -11 3 -6 -4 -103 -17 -216 l-23 -205 -38 -25 c-21 -14 -48 -41 -59 -60 -18 -29 -26 -34 -48 -30 -14 3 -88 13 -163 23 -135 17 -137 18 -149 46 -6 16 -27 42 -46 57 -35 28 -35 29 -20 62 103 237 98 229 128 229 39 0 88 45 115 107 20 46 28 53 59 59 20 3 58 15 83 25 65 25 71 24 109 -21z m530 -174 l62 -49 -21 -41 c-14 -25 -22 -60 -23 -89 l0 -49 -167 -75 -167 -75 -31 31 c-18 17 -38 31 -46 31 -18 0 -18 12 1 190 9 80 18 168 21 197 5 45 9 53 33 61 15 5 39 23 52 39 l24 29 100 -76 c55 -41 128 -97 162 -124z m212 -111 c49 -25 56 -82 15 -114 -30 -24 -61 -26 -86 -7 -42 31 -39 103 5 124 30 14 34 14 66 -3z m-97 -211 c23 -12 47 -15 85 -11 l53 6 0 -204 0 -203 -34 10 c-106 33 -227 -85 -199 -192 9 -33 7 -37 -36 -75 -92 -82 -85 -79 -128 -52 -21 13 -44 26 -52 28 -7 3 -31 38 -53 79 -69 131 -158 308 -158 314 0 3 6 6 13 6 32 1 97 86 97 127 0 14 8 24 23 29 12 4 54 22 92 40 106 49 249 112 258 113 4 1 22 -6 39 -15z m-1193 -29 c16 -8 31 -22 35 -30 29 -78 -52 -139 -111 -83 -33 31 -30 70 8 102 36 31 32 30 68 11z m669 -65 c44 -41 11 -120 -49 -120 -42 0 -85 51 -72 87 19 54 80 71 121 33z m-353 -70 c139 -16 143 -17 150 -41 4 -12 24 -38 45 -58 l38 -37 -26 -30 c-15 -17 -36 -43 -47 -58 -11 -15 -33 -42 -48 -59 -16 -18 -38 -45 -50 -61 -12 -15 -31 -39 -42 -52 -11 -12 -30 -36 -42 -51 -69 -88 -78 -96 -99 -85 -13 7 -31 44 -53 114 -18 57 -51 155 -72 217 -21 63 -37 115 -36 116 26 11 78 62 83 82 6 24 10 25 53 20 25 -3 91 -11 146 -17z m374 -382 l80 -157 -30 -22 c-37 -26 -59 -74 -59 -129 0 -60 23 -105 69 -136 l41 -27 0 -67 c0 -62 -2 -69 -27 -85 -14 -10 -36 -28 -48 -40 l-21 -23 -79 70 c-112 99 -131 115 -210 183 -101 86 -102 87 -98 110 3 11 -2 39 -9 61 l-14 40 134 165 c159 194 182 222 187 217 2 -2 40 -74 84 -160z m601 45 c33 -22 40 -33 40 -65 0 -30 -40 -68 -72 -68 -76 0 -97 102 -28 137 32 16 31 16 60 -4z m-13 -220 l53 6 0 -235 0 -234 -27 -5 c-16 -3 -64 -15 -108 -25 -44 -10 -107 -25 -141 -33 l-60 -14 -13 29 c-7 15 -33 40 -57 54 l-44 26 0 67 c0 66 0 67 36 86 45 24 72 61 80 114 6 35 17 50 83 107 42 37 77 71 79 75 2 5 18 1 35 -7 22 -12 46 -15 84 -11z m-1086 -81 c15 -13 22 -30 22 -52 0 -63 -73 -92 -120 -48 -66 61 27 156 98 100z m696 -4 c30 -28 30 -74 1 -99 -49 -40 -118 -10 -118 51 0 62 71 92 117 48z m0 -460 c49 -46 17 -118 -52 -118 -58 0 -87 79 -43 120 28 26 66 26 95 -2z"/>
 </g>

</svg>